<?xml version="1.0" encoding="utf-8"?>
<!-- Generator: Adobe Illustrator 19.1.0, SVG Export Plug-In . SVG Version: 6.00 Build 0)  -->
<svg version="1.1" id="Layer_1" xmlns="http://www.w3.org/2000/svg" xmlns:xlink="http://www.w3.org/1999/xlink" x="0px" y="0px"
	 viewBox="0 0 500 436.2" style="enable-background:new 0 0 500 436.2;" xml:space="preserve">
<style type="text/css">
	.st0{fill:url(#SVGID_1_);}
	.st1{fill:url(#SVGID_2_);}
	.st2{fill:#FFFFFF;}
	.st3{fill:url(#SVGID_3_);}
	.st4{fill:url(#SVGID_4_);}
	.st5{fill:url(#SVGID_5_);}
	.st6{fill:url(#SVGID_6_);}
	.st7{fill:url(#SVGID_7_);}
	.st8{fill:url(#SVGID_8_);}
</style>
<linearGradient id="SVGID_1_" gradientUnits="userSpaceOnUse" x1="218.5632" y1="202.3024" x2="212.3063" y2="202.3024">
	<stop  offset="0" style="stop-color:#FFFFFF"/>
	<stop  offset="1" style="stop-color:#949494"/>
</linearGradient>
<rect x="213.4" y="10.3" class="st0" width="5.1" height="384"/>
<linearGradient id="SVGID_2_" gradientUnits="userSpaceOnUse" x1="-259.684" y1="40.7919" x2="-156.5717" y2="40.7919" gradientTransform="matrix(-1 0 0 -1 -1.4916 445.1166)">
	<stop  offset="0" style="stop-color:#FFFFFF"/>
	<stop  offset="1" style="stop-color:#949494"/>
</linearGradient>
<polygon class="st1" points="216,436 173.8,436 194.9,404.2 216,372.6 237.1,404.3 258.2,436 "/>
<g>
	<polygon class="st2" points="128.5,435.8 128.7,435.6 128.5,435.3 	"/>
	<polygon class="st2" points="189,10.3 128,71.7 128,343.1 128.7,343.6 128.7,435 189,366.5 	"/>
	<g>
		
			<linearGradient id="SVGID_3_" gradientUnits="userSpaceOnUse" x1="142.7628" y1="245.1809" x2="188.005" y2="294.7318" gradientTransform="matrix(-1 4.010965e-03 -4.010965e-03 -1 326.5848 311.3054)">
			<stop  offset="0" style="stop-color:#FFFFFF"/>
			<stop  offset="1" style="stop-color:#949494"/>
		</linearGradient>
		<path class="st3" d="M189.9,71.6c-11.5-18.9-11.6-42.6-0.1-61.5c-32,18.9-52.4,42.8-61.2,61.7C149,71.8,169.5,71.7,189.9,71.6z"/>
	</g>
	<linearGradient id="SVGID_4_" gradientUnits="userSpaceOnUse" x1="-0.4032" y1="342.8729" x2="157.4308" y2="342.8729">
		<stop  offset="0" style="stop-color:#FFFFFF"/>
		<stop  offset="1" style="stop-color:#949494"/>
	</linearGradient>
	<polygon class="st4" points="45.6,250.4 -0.4,291.3 128,435.3 128,343.1 	"/>
	<linearGradient id="SVGID_5_" gradientUnits="userSpaceOnUse" x1="-4.136458e-02" y1="435.5803" x2="157.9409" y2="435.5803">
		<stop  offset="0" style="stop-color:#FFFFFF"/>
		<stop  offset="1" style="stop-color:#949494"/>
	</linearGradient>
	<polygon class="st5" points="129.2,436.2 129.2,435 128.7,435.6 	"/>
	<polygon class="st2" points="128,343.1 128,435.3 128.4,435.6 129.1,435 128.7,343.6 	"/>
	<linearGradient id="SVGID_6_" gradientUnits="userSpaceOnUse" x1="-62.3331" y1="389.3203" x2="171.6257" y2="389.3203">
		<stop  offset="0" style="stop-color:#FFFFFF"/>
		<stop  offset="1" style="stop-color:#949494"/>
	</linearGradient>
	<polygon class="st6" points="128,343.1 128,435.3 128.4,435.6 129.1,435 128.7,343.6 	"/>
</g>
<g>
	<polygon class="st2" points="305,71.7 243,10.3 243,366.5 305,435.8 305,374.4 	"/>
	<g>
		<linearGradient id="SVGID_7_" gradientUnits="userSpaceOnUse" x1="243.7994" y1="61.3411" x2="298.071" y2="25.3047">
			<stop  offset="0" style="stop-color:#FFFFFF"/>
			<stop  offset="1" style="stop-color:#949494"/>
		</linearGradient>
		<path class="st7" d="M243.7,71.6c20.4,0.1,40.8,0.2,61.2,0.4c-8.7-19-29.1-42.9-61-61.8C255.3,29,255.2,52.7,243.7,71.6z"/>
	</g>
	<linearGradient id="SVGID_8_" gradientUnits="userSpaceOnUse" x1="462.7616" y1="338.829" x2="315.4799" y2="499.3314">
		<stop  offset="0" style="stop-color:#FFFFFF"/>
		<stop  offset="1" style="stop-color:#949494"/>
	</linearGradient>
	<rect x="305" y="373" class="st8" width="195" height="63"/>
</g>
</svg>
